<?xml version="1.0" encoding="UTF-8" standalone="no"?>
<!-- Created with Inkscape (http://www.inkscape.org/) -->

<svg
   xmlns:dc="http://purl.org/dc/elements/1.1/"
   xmlns:cc="http://creativecommons.org/ns#"
   xmlns:rdf="http://www.w3.org/1999/02/22-rdf-syntax-ns#"
   xmlns:svg="http://www.w3.org/2000/svg"
   xmlns="http://www.w3.org/2000/svg"
   xmlns:sodipodi="http://sodipodi.sourceforge.net/DTD/sodipodi-0.dtd"
   xmlns:inkscape="http://www.inkscape.org/namespaces/inkscape"
   version="1.1"
   id="svg1493"
   xml:space="preserve"
   width="1472"
   height="4642.6665"
   viewBox="0 0 1472 4642.6665"
   sodipodi:docname="DTree_Classifier.svg"
   inkscape:version="0.92.4 (5da689c313, 2019-01-14)"
   inkscape:export-filename="D:\IJSEKE-manuscript\images\cpn-model-2.png"
   inkscape:export-xdpi="96"
   inkscape:export-ydpi="96"><metadata
     id="metadata1499"><rdf:RDF><cc:Work
         rdf:about=""><dc:format>image/svg+xml</dc:format><dc:type
           rdf:resource="http://purl.org/dc/dcmitype/StillImage" /><dc:title></dc:title></cc:Work></rdf:RDF></metadata><defs
     id="defs1497" /><sodipodi:namedview
     pagecolor="#ffffff"
     bordercolor="#666666"
     borderopacity="1"
     objecttolerance="10"
     gridtolerance="10"
     guidetolerance="10"
     inkscape:pageopacity="0"
     inkscape:pageshadow="2"
     inkscape:window-width="1920"
     inkscape:window-height="1001"
     id="namedview1495"
     showgrid="false"
     inkscape:zoom="0.73"
     inkscape:cx="788.46741"
     inkscape:cy="4015.7167"
     inkscape:window-x="-9"
     inkscape:window-y="-9"
     inkscape:window-maximized="1"
     inkscape:current-layer="g1501"
     showguides="true"
     inkscape:guide-bbox="true"><sodipodi:guide
       position="1097.2603,889.0411"
       orientation="0,1"
       id="guide10654"
       inkscape:locked="false" /><sodipodi:guide
       position="1393.1507,731.50685"
       orientation="1,0"
       id="guide6644"
       inkscape:locked="false" /></sodipodi:namedview><g
     id="g1501"
     inkscape:groupmode="layer"
     inkscape:label="ink_ext_XXXXXX"
     transform="matrix(1.3333333,0,0,-1.3333333,0,4642.6667)">























<g
   id="g6037"
   transform="translate(-155.29297,3077.4222)"><path
     d="m 504.3029,143.71505 c 0,13.807 -13.43,25 -30,25 -16.57,0 -30,-11.193 -30,-25 0,-13.807 13.43,-25 30,-25 16.57,0 30,11.193 30,25"
     style="fill:#ffffff;fill-opacity:1;fill-rule:nonzero;stroke:none;stroke-width:0.1"
     id="path4909"
     inkscape:connector-curvature="0" /><path
     d="m 504.3029,143.71505 c 0,13.807 -13.43,25 -30,25 -16.57,0 -30,-11.193 -30,-25 0,-13.807 13.43,-25 30,-25 16.57,0 30,11.193 30,25"
     style="fill:none;stroke:#0000ff;stroke-width:1;stroke-linecap:butt;stroke-linejoin:miter;stroke-miterlimit:10;stroke-dasharray:none;stroke-opacity:1"
     id="path4911"
     inkscape:connector-curvature="0" /><g
     id="g4913"
     transform="translate(-569.6971,-553.28495)"><text
       transform="matrix(1,0,0,-1,1029.51,693)"
       style="font-variant:normal;font-weight:normal;font-size:12px;font-family:Verdana;-inkscape-font-specification:Verdana;writing-mode:lr-tb;fill:#0000ff;fill-opacity:1;fill-rule:nonzero;stroke:none"
       id="text4925"><tspan
         x="0 8.2080002 12.936 20.148001 25.271999"
         y="0"
         sodipodi:role="line"
         id="tspan4915">Start</tspan><tspan
         x="-112.506 -104.13 -95.921997 -86.945999 -77.694 -72.641998 -63.389999 -55.181999 -47.790001"
         y="1"
         sodipodi:role="line"
         id="tspan4917">CANDIDATE</tspan><tspan
         x="-45.506001 -37.874001 -30.242001 -24.794001 -17.162001 -12.794 -5.1620002 2.47 10.102 14.47 22.101999 26.469999 34.102001 39.549999 49.366001"
         y="-64"
         sodipodi:role="line"
         id="tspan4919">1`(1,667,0,0)++</tspan><tspan
         x="-45.506001 -37.874001 -30.242001 -24.794001 -17.162001 -12.794 -5.1620002 2.47 10.102 17.733999 22.101999 29.733999 37.366001 41.734001 49.366001 54.813999 64.629997"
         y="-50"
         sodipodi:role="line"
         id="tspan4921">1`(2,1100,59,1)++</tspan><tspan
         x="-45.506001 -37.874001 -30.242001 -24.794001 -17.162001 -12.794 -5.1620002 2.47 10.102 14.47 22.101999 29.733999 34.102001 41.734001"
         y="-36"
         sodipodi:role="line"
         id="tspan4923">1`(3,825,60,0)</tspan></text>
</g><g
     id="g4927"
     transform="matrix(0.104479,0,0,0.104479,-569.6971,-553.28495)"><path
       d="m 16300,4067.82 c 0,105.72 -385.7,191.43 -861.4,191.43 -475.8,0 -861.4,-85.71 -861.4,-191.43 0,-105.72 385.6,-191.43 861.4,-191.43 475.7,0 861.4,85.71 861.4,191.43"
       style="fill:#ffffff;fill-opacity:1;fill-rule:nonzero;stroke:none"
       id="path4929"
       inkscape:connector-curvature="0" /></g><g
     id="g4931"
     transform="matrix(0.104479,0,0,0.104479,-569.6971,-553.28495)"><path
       d="m 16300,4067.82 c 0,105.72 -385.7,191.43 -861.4,191.43 -475.8,0 -861.4,-85.71 -861.4,-191.43 0,-105.72 385.6,-191.43 861.4,-191.43 475.7,0 861.4,85.71 861.4,191.43"
       style="fill:none;stroke:#800000;stroke-width:9.57133961;stroke-linecap:butt;stroke-linejoin:miter;stroke-miterlimit:10;stroke-dasharray:none;stroke-opacity:1"
       id="path4933"
       inkscape:connector-curvature="0" /></g><g
     id="g4935"
     transform="translate(-569.6971,-553.28495)"><text
       transform="matrix(1,0,0,-1,1537.16,421)"
       style="font-variant:normal;font-weight:normal;font-size:12px;font-family:Verdana;-inkscape-font-specification:Verdana;writing-mode:lr-tb;fill:#800000;fill-opacity:1;fill-rule:nonzero;stroke:none"
       id="text4941"><tspan
         x="0 8.3760004 15.588 23.184 30.66 37.872002 42.599998 49.751999 57.383999 64.620003 69.744003 76.896004 84.372002 87.660004 93.912003 98.639999 105.792 113.268 120.9 127.584 134.79601 142.272 149.424"
         y="0"
         sodipodi:role="line"
         id="tspan4937">Candate_Predicted_Label</tspan><tspan
         x="44.841801 53.2178 61.4258 70.401802 79.653801 84.705803 93.957802 102.1658 109.5578 117.1418 124.7738 131.45779 139.6658"
         y="32"
         sodipodi:role="line"
         id="tspan4939">CANDIDATE_LAB</tspan></text>
</g><path
     d="m 532.3029,-57.28495 c 0,11.045 -25.97,20 -58,20 -32.03,0 -58,-8.955 -58,-20 0,-11.045 25.97,-20 58,-20 32.03,0 58,8.955 58,20"
     style="fill:#ffffff;fill-opacity:1;fill-rule:nonzero;stroke:none;stroke-width:0.1"
     id="path4943"
     inkscape:connector-curvature="0" /><path
     d="m 532.3029,-57.28495 c 0,11.045 -25.97,20 -58,20 -32.03,0 -58,-8.955 -58,-20 0,-11.045 25.97,-20 58,-20 32.03,0 58,8.955 58,20"
     style="fill:none;stroke:#0000ff;stroke-width:1;stroke-linecap:butt;stroke-linejoin:miter;stroke-miterlimit:10;stroke-dasharray:none;stroke-opacity:1"
     id="path4945"
     inkscape:connector-curvature="0" /><g
     id="g4947"
     transform="translate(-569.6971,-553.28495)"><text
       transform="matrix(1,0,0,-1,995.22,492)"
       style="font-variant:normal;font-weight:normal;font-size:12px;font-family:Verdana;-inkscape-font-specification:Verdana;writing-mode:lr-tb;fill:#0000ff;fill-opacity:1;fill-rule:nonzero;stroke:none"
       id="text4953"><tspan
         x="0 8.2080002 15.36 22.955999 30.431999 38.063999 46.439999 53.652 61.248001 68.723999 72.012001 79.487999 86.699997 91.428001"
         y="0"
         sodipodi:role="line"
         id="tspan4949">Send_Candidate</tspan><tspan
         x="92.780098 101.1561 109.3641 118.3401 127.5921 132.6441 141.8961 150.1041 157.49609"
         y="24"
         sodipodi:role="line"
         id="tspan4951">CANDIDATE</tspan></text>
</g><path
     d="m 816.3029,22.71505 c 0,11.045 -21.49,20 -48,20 -26.51,0 -48,-8.955 -48,-20 0,-11.045 21.49,-20 48,-20 26.51,0 48,8.955 48,20"
     style="fill:#ffffff;fill-opacity:1;fill-rule:nonzero;stroke:none;stroke-width:0.1"
     id="path4955"
     inkscape:connector-curvature="0" /><path
     d="m 816.3029,22.71505 c 0,11.045 -21.49,20 -48,20 -26.51,0 -48,-8.955 -48,-20 0,-11.045 21.49,-20 48,-20 26.51,0 48,8.955 48,20"
     style="fill:none;stroke:#008080;stroke-width:1;stroke-linecap:butt;stroke-linejoin:miter;stroke-miterlimit:10;stroke-dasharray:none;stroke-opacity:1"
     id="path4957"
     inkscape:connector-curvature="0" /><g
     id="g4959"
     transform="translate(-569.6971,-553.28495)"><text
       transform="matrix(1,0,0,-1,1307.89,572)"
       style="font-variant:normal;font-weight:normal;font-size:12px;font-family:Verdana;-inkscape-font-specification:Verdana;writing-mode:lr-tb;fill:#008080;fill-opacity:1;fill-rule:nonzero;stroke:none"
       id="text4967"><tspan
         x="0 6.684 13.896 21.372 28.524 31.812 39.444 46.824001 53.976002"
         y="0"
         sodipodi:role="line"
         id="tspan4961">Label_Yes</tspan><tspan
         x="67.1082"
         y="24"
         id="tspan4963">L</tspan><tspan
         x="-89.8918 -82.259804 -74.6278 -69.179802 -63.671799 -56.291801 -49.139801 -42.887798 -37.379799"
         y="-13"
         sodipodi:role="line"
         id="tspan4965">1`(&quot;Yes&quot;)</tspan></text>
</g><path
     d="m 813.3029,-212.28495 c 0,11.045 -20.15,20 -45,20 -24.85,0 -45,-8.955 -45,-20 0,-11.045 20.15,-20 45,-20 24.85,0 45,8.955 45,20"
     style="fill:#ffffff;fill-opacity:1;fill-rule:nonzero;stroke:none;stroke-width:0.1"
     id="path4969"
     inkscape:connector-curvature="0" /><path
     d="m 813.3029,-212.28495 c 0,11.045 -20.15,20 -45,20 -24.85,0 -45,-8.955 -45,-20 0,-11.045 20.15,-20 45,-20 24.85,0 45,8.955 45,20"
     style="fill:none;stroke:#ff0000;stroke-width:1;stroke-linecap:butt;stroke-linejoin:miter;stroke-miterlimit:10;stroke-dasharray:none;stroke-opacity:1"
     id="path4971"
     inkscape:connector-curvature="0" /><g
     id="g4973"
     transform="translate(-569.6971,-553.28495)"><text
       transform="matrix(1,0,0,-1,1310.65,337)"
       style="font-variant:normal;font-weight:normal;font-size:12px;font-family:Verdana;-inkscape-font-specification:Verdana;writing-mode:lr-tb;fill:#ff0000;fill-opacity:1;fill-rule:nonzero;stroke:none"
       id="text4981"><tspan
         x="0 6.684 13.896 21.372 28.524 31.812 39.444 48.419998"
         y="0"
         sodipodi:role="line"
         id="tspan4975">Label_No</tspan><tspan
         x="-13.6535"
         y="23"
         id="tspan4977">L</tspan><tspan
         x="-84.653503 -77.0215 -69.389503 -63.941502 -58.433498 -49.4575 -42.1735 -36.665501"
         y="-13"
         sodipodi:role="line"
         id="tspan4979">1`(&quot;No&quot;)</tspan></text>
</g><path
     d="m 283.3029,52.71505 c 0,11.045 -18.804,20 -42,20 -23.196,0 -42,-8.955 -42,-20 0,-11.045 18.804,-20 42,-20 23.196,0 42,8.955 42,20"
     style="fill:#ffffff;fill-opacity:1;fill-rule:nonzero;stroke:none;stroke-width:0.1"
     id="path4983"
     inkscape:connector-curvature="0" /><path
     d="m 283.3029,52.71505 c 0,11.045 -18.804,20 -42,20 -23.196,0 -42,-8.955 -42,-20 0,-11.045 18.804,-20 42,-20 23.196,0 42,8.955 42,20"
     style="fill:none;stroke:#0000ff;stroke-width:1;stroke-linecap:butt;stroke-linejoin:miter;stroke-miterlimit:10;stroke-dasharray:none;stroke-opacity:1"
     id="path4985"
     inkscape:connector-curvature="0" /><g
     id="g4987"
     transform="translate(-569.6971,-553.28495)"><text
       transform="matrix(1,0,0,-1,778.497,602)"
       style="font-variant:normal;font-weight:normal;font-size:12px;font-family:Verdana;-inkscape-font-specification:Verdana;writing-mode:lr-tb;fill:#0000ff;fill-opacity:1;fill-rule:nonzero;stroke:none"
       id="text4993"><tspan
         x="0 8.9759998 16.128 23.232 27.959999 35.591999 43.799999 50.952 58.548"
         y="0"
         sodipodi:role="line"
         id="tspan4989">Next_Send</tspan><tspan
         x="-11.4973 -2.5213001"
         y="32"
         sodipodi:role="line"
         id="tspan4991">NO</tspan></text>
</g><g
     id="g4995"
     transform="translate(-569.6971,-553.28495)"><text
       transform="matrix(1,0,0,-1,799,571)"
       style="font-variant:normal;font-weight:normal;font-size:12px;font-family:Verdana;-inkscape-font-specification:Verdana;writing-mode:lr-tb;fill:#000000;fill-opacity:1;fill-rule:nonzero;stroke:none"
       id="text4999"><tspan
         x="0 7.632 15.264"
         y="0"
         sodipodi:role="line"
         id="tspan4997">1`1</tspan></text>
</g><path
     d="m 313.3029,-390.28495 c 0,11.045 -32.236,20 -72,20 -39.764,0 -72,-8.955 -72,-20 0,-11.045 32.236,-20 72,-20 39.764,0 72,8.955 72,20"
     style="fill:#ffffff;fill-opacity:1;fill-rule:nonzero;stroke:none;stroke-width:0.1"
     id="path5001"
     inkscape:connector-curvature="0" /><path
     d="m 313.3029,-390.28495 c 0,11.045 -32.236,20 -72,20 -39.764,0 -72,-8.955 -72,-20 0,-11.045 32.236,-20 72,-20 39.764,0 72,8.955 72,20"
     style="fill:none;stroke:#800000;stroke-width:1;stroke-linecap:butt;stroke-linejoin:miter;stroke-miterlimit:10;stroke-dasharray:none;stroke-opacity:1"
     id="path5003"
     inkscape:connector-curvature="0" /><g
     id="g5005"
     transform="translate(-569.6971,-553.28495)"><text
       transform="matrix(1,0,0,-1,750.993,159)"
       style="font-variant:normal;font-weight:normal;font-size:12px;font-family:Verdana;-inkscape-font-specification:Verdana;writing-mode:lr-tb;fill:#800000;fill-opacity:1;fill-rule:nonzero;stroke:none"
       id="text5017"><tspan
         x="0 8.2080002 15.36 22.955999 30.431999 38.063999 46.271999 52.523998 57.251999 64.848 72.059998 75.348 82.980003 89.664001 96.875999 104.352 111.504 114.792"
         y="0"
         sodipodi:role="line"
         id="tspan5007">Send_Actual_Labels</tspan><tspan
         x="72.006599 80.2146 88.590599 95.982597 104.7666 112.9746 119.6586 127.2906 133.97459 142.1826"
         y="39"
         sodipodi:role="line"
         id="tspan5009">ACTUAL_LAB</tspan><tspan
         x="171.00661 178.6386 186.2706 191.7186 199.3506 203.7186 209.22659 218.20261 225.4866 230.9946 236.4426 246.25861"
         y="-14"
         sodipodi:role="line"
         id="tspan5011">1`(1,&quot;No&quot;)++</tspan><tspan
         x="171.00661 178.6386 186.2706 191.7186 199.3506 203.7186 209.22659 216.6066 223.75861 230.0106 235.5186 240.9666 250.78259"
         y="0"
         sodipodi:role="line"
         id="tspan5013">1`(2,&quot;Yes&quot;)++</tspan><tspan
         x="171.00661 178.6386 186.2706 191.7186 199.3506 203.7186 209.22659 218.20261 225.4866 230.9946"
         y="14"
         sodipodi:role="line"
         id="tspan5015">1`(3,&quot;No&quot;)</tspan></text>
</g><path
     d="m 309.3029,-116.28495 c 0,11.045 -30.893,20 -69,20 -38.107,0 -69,-8.955 -69,-20 0,-11.045 30.893,-20 69,-20 38.107,0 69,8.955 69,20"
     style="fill:#ffffff;fill-opacity:1;fill-rule:nonzero;stroke:none;stroke-width:0.1"
     id="path5019"
     inkscape:connector-curvature="0" /><path
     d="m 309.3029,-116.28495 c 0,11.045 -30.893,20 -69,20 -38.107,0 -69,-8.955 -69,-20 0,-11.045 30.893,-20 69,-20 38.107,0 69,8.955 69,20"
     style="fill:none;stroke:#800000;stroke-width:1;stroke-linecap:butt;stroke-linejoin:miter;stroke-miterlimit:10;stroke-dasharray:none;stroke-opacity:1"
     id="path5021"
     inkscape:connector-curvature="0" /><g
     id="g5023"
     transform="translate(-569.6971,-553.28495)"><text
       transform="matrix(1,0,0,-1,754.353,433)"
       style="font-variant:normal;font-weight:normal;font-size:12px;font-family:Verdana;-inkscape-font-specification:Verdana;writing-mode:lr-tb;fill:#800000;fill-opacity:1;fill-rule:nonzero;stroke:none"
       id="text5029"><tspan
         x="0 8.9759998 16.128 23.232 27.959999 35.591999 43.799999 50.051998 54.779999 62.375999 69.587997 72.875999 80.508003 87.192001 94.403999 101.88 109.032"
         y="0"
         sodipodi:role="line"
         id="tspan5025">Next_Actual_Label</tspan><tspan
         x="107.647 116.623"
         y="23"
         sodipodi:role="line"
         id="tspan5027">NO</tspan></text>
</g><g
     id="g5031"
     transform="matrix(0.106626,0,0,0.106626,-569.6971,-553.28495)"><path
       d="m 16300,2410.3 c 0,103.59 -487.1,187.57 -1087.9,187.57 -600.9,0 -1087.9,-83.98 -1087.9,-187.57 0,-103.59 487,-187.57 1087.9,-187.57 600.8,0 1087.9,83.98 1087.9,187.57"
       style="fill:#ffffff;fill-opacity:1;fill-rule:nonzero;stroke:none"
       id="path5033"
       inkscape:connector-curvature="0" /></g><g
     id="g5035"
     transform="matrix(0.106626,0,0,0.106626,-569.6971,-553.28495)"><path
       d="m 16300,2410.3 c 0,103.59 -487.1,187.57 -1087.9,187.57 -600.9,0 -1087.9,-83.98 -1087.9,-187.57 0,-103.59 487,-187.57 1087.9,-187.57 600.8,0 1087.9,83.98 1087.9,187.57"
       style="fill:none;stroke:#800000;stroke-width:9.37860012;stroke-linecap:butt;stroke-linejoin:miter;stroke-miterlimit:10;stroke-dasharray:none;stroke-opacity:1"
       id="path5037"
       inkscape:connector-curvature="0" /></g><g
     id="g5039"
     transform="translate(-569.6971,-553.28495)"><text
       transform="matrix(1,0,0,-1,1518.31,253)"
       style="font-variant:normal;font-weight:normal;font-size:12px;font-family:Verdana;-inkscape-font-specification:Verdana;writing-mode:lr-tb;fill:#800000;fill-opacity:1;fill-rule:nonzero;stroke:none"
       id="text5045"><tspan
         x="0 8.3760004 15.66 27.336 34.812 42.023998 47.147999 54.299999 61.931999 70.139999 76.391998 81.120003 88.716003 95.928001 99.216003 106.848 114.084 119.208 126.36 133.836 137.12399 143.37601 148.104 155.256 162.73199 170.364 177.048 184.25999 191.73599 198.888 202.17599"
         y="0"
         sodipodi:role="line"
         id="tspan5041">Compare_Actual_Predicted_Labels</tspan><tspan
         x="36.694099 45.070099 53.278099 62.254101 71.506104 76.558098 85.810097 94.018097 101.4101 108.9941 116.6261 124.8341 133.2101 139.8941 147.52609 154.7621 163.1021"
         y="31"
         sodipodi:role="line"
         id="tspan5043">CANDIDATE_ACL_PRL</tspan></text>
</g><path
     d="m 416.3029,32.71505 h 116 v 40 h -116 z"
     style="fill:#ffffff;fill-opacity:1;fill-rule:nonzero;stroke:none;stroke-width:0.1"
     id="path5047"
     inkscape:connector-curvature="0" /><path
     d="m 416.3029,32.71505 h 116 v 40 h -116 z"
     style="fill:none;stroke:#0000ff;stroke-width:1;stroke-linecap:butt;stroke-linejoin:miter;stroke-miterlimit:10;stroke-dasharray:none;stroke-opacity:1"
     id="path5049"
     inkscape:connector-curvature="0" /><g
     id="g5051"
     transform="translate(-569.6971,-553.28495)"><text
       transform="matrix(1,0,0,-1,992.044,602)"
       style="font-variant:normal;font-weight:normal;font-size:12px;font-family:Verdana;-inkscape-font-specification:Verdana;writing-mode:lr-tb;fill:#0000ff;fill-opacity:1;fill-rule:nonzero;stroke:none"
       id="text5055"><tspan
         x="0 8.2080002 15.36 18.648001 25.799999 32.051998 36.779999 44.411999 52.787998 60 67.596001 75.071999 78.360001 85.835999 93.047997 97.776001"
         y="0"
         sodipodi:role="line"
         id="tspan5053">Select_Candidate</tspan></text>
</g><path
     d="m 687.3029,-77.28495 h 162 v 40 h -162 z"
     style="fill:#ffffff;fill-opacity:1;fill-rule:nonzero;stroke:none;stroke-width:0.1"
     id="path5057"
     inkscape:connector-curvature="0" /><path
     d="m 687.3029,-77.28495 h 162 v 40 h -162 z"
     style="fill:none;stroke:#008080;stroke-width:1;stroke-linecap:butt;stroke-linejoin:miter;stroke-miterlimit:10;stroke-dasharray:none;stroke-opacity:1"
     id="path5059"
     inkscape:connector-curvature="0" /><path
     d="m 691.3029,-73.28495 h 154 v 32 h -154 z"
     style="fill:#ffffff;fill-opacity:1;fill-rule:nonzero;stroke:none;stroke-width:0.1"
     id="path5061"
     inkscape:connector-curvature="0" /><path
     d="m 691.3029,-73.28495 h 154 v 32 h -154 z"
     style="fill:none;stroke:#008080;stroke-width:1;stroke-linecap:butt;stroke-linejoin:miter;stroke-miterlimit:10;stroke-dasharray:none;stroke-opacity:1"
     id="path5063"
     inkscape:connector-curvature="0" /><g
     id="g5065"
     transform="translate(-569.6971,-553.28495)"><text
       transform="matrix(1,0,0,-1,1273.72,492)"
       style="font-variant:normal;font-weight:normal;font-size:12px;font-family:Verdana;-inkscape-font-specification:Verdana;writing-mode:lr-tb;fill:#008080;fill-opacity:1;fill-rule:nonzero;stroke:none"
       id="text5069"><tspan
         x="0 8.3760004 11.664 18.875999 25.128 31.379999 34.667999 38.891998 42.18 49.332001 54.456001 62.088001 69.468002 76.620003 82.872002 90.503998 97.188004 104.4 111.876 119.028 122.316"
         y="0"
         sodipodi:role="line"
         id="tspan5067">Classifier_Yes_Labels</tspan></text>
</g><path
     d="m 799.8029,-96.28495 h 141 v 12 h -141 z"
     style="fill:#e3e3ff;fill-opacity:1;fill-rule:nonzero;stroke:none;stroke-width:0.1"
     id="path5071"
     inkscape:connector-curvature="0" /><path
     d="m 799.8029,-96.28495 h 141 v 12 h -141 z"
     style="fill:none;stroke:#4d66cc;stroke-width:1;stroke-linecap:butt;stroke-linejoin:miter;stroke-miterlimit:10;stroke-dasharray:none;stroke-opacity:1"
     id="path5073"
     inkscape:connector-curvature="0" /><g
     id="g5075"
     transform="translate(-569.6971,-553.28495)"><text
       transform="matrix(1,0,0,-1,1371.5,459)"
       style="font-variant:normal;font-weight:normal;font-size:12px;font-family:Verdana;-inkscape-font-specification:Verdana;writing-mode:lr-tb;fill:#4d66cc;fill-opacity:1;fill-rule:nonzero;stroke:none"
       id="text5079"><tspan
         x="0 8.3760004 11.664 18.875999 25.128 31.379999 34.667999 38.891998 42.18 49.332001 54.456001 62.088001 69.468002 76.620003 82.872002 90.503998 97.188004 104.4 111.876 119.028 122.316"
         y="0"
         sodipodi:role="line"
         id="tspan5077">Classifier_Yes_Labels</tspan></text>
</g><path
     d="m 799.8029,-96.28495 h 141 v 12 h -141 z"
     style="fill:#e3e3ff;fill-opacity:1;fill-rule:nonzero;stroke:none;stroke-width:0.1"
     id="path5081"
     inkscape:connector-curvature="0" /><path
     d="m 799.8029,-96.28495 h 141 v 12 h -141 z"
     style="fill:none;stroke:#4d66cc;stroke-width:1;stroke-linecap:butt;stroke-linejoin:miter;stroke-miterlimit:10;stroke-dasharray:none;stroke-opacity:1"
     id="path5083"
     inkscape:connector-curvature="0" /><g
     id="g5085"
     transform="translate(-569.6971,-553.28495)"><text
       transform="matrix(1,0,0,-1,1371.5,459)"
       style="font-variant:normal;font-weight:normal;font-size:12px;font-family:Verdana;-inkscape-font-specification:Verdana;writing-mode:lr-tb;fill:#4d66cc;fill-opacity:1;fill-rule:nonzero;stroke:none"
       id="text5089"><tspan
         x="0 8.3760004 11.664 18.875999 25.128 31.379999 34.667999 38.891998 42.18 49.332001 54.456001 62.088001 69.468002 76.620003 82.872002 90.503998 97.188004 104.4 111.876 119.028 122.316"
         y="0"
         sodipodi:role="line"
         id="tspan5087">Classifier_Yes_Labels</tspan></text>
</g><path
     d="m 688.3029,-148.28495 h 160 v 40 h -160 z"
     style="fill:#ffffff;fill-opacity:1;fill-rule:nonzero;stroke:none;stroke-width:0.1"
     id="path5091"
     inkscape:connector-curvature="0" /><path
     d="m 688.3029,-148.28495 h 160 v 40 h -160 z"
     style="fill:none;stroke:#ff0000;stroke-width:1;stroke-linecap:butt;stroke-linejoin:miter;stroke-miterlimit:10;stroke-dasharray:none;stroke-opacity:1"
     id="path5093"
     inkscape:connector-curvature="0" /><path
     d="m 692.3029,-144.28495 h 152 v 32 h -152 z"
     style="fill:#ffffff;fill-opacity:1;fill-rule:nonzero;stroke:none;stroke-width:0.1"
     id="path5095"
     inkscape:connector-curvature="0" /><path
     d="m 692.3029,-144.28495 h 152 v 32 h -152 z"
     style="fill:none;stroke:#ff0000;stroke-width:1;stroke-linecap:butt;stroke-linejoin:miter;stroke-miterlimit:10;stroke-dasharray:none;stroke-opacity:1"
     id="path5097"
     inkscape:connector-curvature="0" /><g
     id="g5099"
     transform="translate(-569.6971,-553.28495)"><text
       transform="matrix(1,0,0,-1,1276.48,421)"
       style="font-variant:normal;font-weight:normal;font-size:12px;font-family:Verdana;-inkscape-font-specification:Verdana;writing-mode:lr-tb;fill:#ff0000;fill-opacity:1;fill-rule:nonzero;stroke:none"
       id="text5103"><tspan
         x="0 8.3760004 11.664 18.875999 25.128 31.379999 34.667999 38.891998 42.18 49.332001 54.456001 62.088001 71.064003 78.348 85.980003 92.664001 99.875999 107.352 114.504 117.792"
         y="0"
         sodipodi:role="line"
         id="tspan5101">Classifier_No_Labels</tspan></text>
</g><path
     d="m 799.3029,-165.28495 h 136 v 12 h -136 z"
     style="fill:#e3e3ff;fill-opacity:1;fill-rule:nonzero;stroke:none;stroke-width:0.1"
     id="path5105"
     inkscape:connector-curvature="0" /><path
     d="m 799.3029,-165.28495 h 136 v 12 h -136 z"
     style="fill:none;stroke:#4d66cc;stroke-width:1;stroke-linecap:butt;stroke-linejoin:miter;stroke-miterlimit:10;stroke-dasharray:none;stroke-opacity:1"
     id="path5107"
     inkscape:connector-curvature="0" /><g
     id="g5109"
     transform="translate(-569.6971,-553.28495)"><text
       transform="matrix(1,0,0,-1,1371,390)"
       style="font-variant:normal;font-weight:normal;font-size:12px;font-family:Verdana;-inkscape-font-specification:Verdana;writing-mode:lr-tb;fill:#4d66cc;fill-opacity:1;fill-rule:nonzero;stroke:none"
       id="text5113"><tspan
         x="0 8.3760004 11.664 18.875999 25.128 31.379999 34.667999 38.891998 42.18 49.332001 54.456001 62.088001 71.064003 78.348 85.980003 92.664001 99.875999 107.352 114.504 117.792"
         y="0"
         sodipodi:role="line"
         id="tspan5111">Classifier_No_Labels</tspan></text>
</g><path
     d="m 799.3029,-165.28495 h 136 v 12 h -136 z"
     style="fill:#e3e3ff;fill-opacity:1;fill-rule:nonzero;stroke:none;stroke-width:0.1"
     id="path5115"
     inkscape:connector-curvature="0" /><path
     d="m 799.3029,-165.28495 h 136 v 12 h -136 z"
     style="fill:none;stroke:#4d66cc;stroke-width:1;stroke-linecap:butt;stroke-linejoin:miter;stroke-miterlimit:10;stroke-dasharray:none;stroke-opacity:1"
     id="path5117"
     inkscape:connector-curvature="0" /><g
     id="g5119"
     transform="translate(-569.6971,-553.28495)"><text
       transform="matrix(1,0,0,-1,1371,390)"
       style="font-variant:normal;font-weight:normal;font-size:12px;font-family:Verdana;-inkscape-font-specification:Verdana;writing-mode:lr-tb;fill:#4d66cc;fill-opacity:1;fill-rule:nonzero;stroke:none"
       id="text5123"><tspan
         x="0 8.3760004 11.664 18.875999 25.128 31.379999 34.667999 38.891998 42.18 49.332001 54.456001 62.088001 71.064003 78.348 85.980003 92.664001 99.875999 107.352 114.504 117.792"
         y="0"
         sodipodi:role="line"
         id="tspan5121">Classifier_No_Labels</tspan></text>
</g><path
     d="m 650.3029,-316.28495 h 236 v 40 h -236 z"
     style="fill:#ffffff;fill-opacity:1;fill-rule:nonzero;stroke:none;stroke-width:0.1"
     id="path5125"
     inkscape:connector-curvature="0" /><path
     d="m 650.3029,-316.28495 h 236 v 40 h -236 z"
     style="fill:none;stroke:#800000;stroke-width:1;stroke-linecap:butt;stroke-linejoin:miter;stroke-miterlimit:10;stroke-dasharray:none;stroke-opacity:1"
     id="path5127"
     inkscape:connector-curvature="0" /><path
     d="m 654.3029,-312.28495 h 228 v 32 h -228 z"
     style="fill:#ffffff;fill-opacity:1;fill-rule:nonzero;stroke:none;stroke-width:0.1"
     id="path5129"
     inkscape:connector-curvature="0" /><path
     d="m 654.3029,-312.28495 h 228 v 32 h -228 z"
     style="fill:none;stroke:#800000;stroke-width:1;stroke-linecap:butt;stroke-linejoin:miter;stroke-miterlimit:10;stroke-dasharray:none;stroke-opacity:1"
     id="path5131"
     inkscape:connector-curvature="0" /><g
     id="g5133"
     transform="translate(-569.6971,-553.28495)"><text
       transform="matrix(1,0,0,-1,1242.95,253)"
       style="font-variant:normal;font-weight:normal;font-size:12px;font-family:Verdana;-inkscape-font-specification:Verdana;writing-mode:lr-tb;fill:#800000;fill-opacity:1;fill-rule:nonzero;stroke:none"
       id="text5137"><tspan
         x="0 10.116 17.268 22.392 29.868 37.02 44.652 52.860001 59.112 63.84 71.435997 78.648003 81.935997 89.568001 96.804001 101.928 109.08 116.556 119.844 126.096 130.82401 137.976 145.452 153.084 159.76801 166.98 174.45599 181.608 184.896"
         y="0"
         sodipodi:role="line"
         id="tspan5135">Merge_Actual_Predicted_Labels</tspan></text>
</g><path
     d="m 734.3029,-337.28495 h 206 v 12 h -206 z"
     style="fill:#e3e3ff;fill-opacity:1;fill-rule:nonzero;stroke:none;stroke-width:0.1"
     id="path5139"
     inkscape:connector-curvature="0" /><path
     d="m 734.3029,-337.28495 h 206 v 12 h -206 z"
     style="fill:none;stroke:#4d66cc;stroke-width:1;stroke-linecap:butt;stroke-linejoin:miter;stroke-miterlimit:10;stroke-dasharray:none;stroke-opacity:1"
     id="path5141"
     inkscape:connector-curvature="0" /><g
     id="g5143"
     transform="translate(-569.6971,-553.28495)"><text
       transform="matrix(1,0,0,-1,1306,218)"
       style="font-variant:normal;font-weight:normal;font-size:12px;font-family:Verdana;-inkscape-font-specification:Verdana;writing-mode:lr-tb;fill:#4d66cc;fill-opacity:1;fill-rule:nonzero;stroke:none"
       id="text5147"><tspan
         x="0 10.116 17.268 22.392 29.868 37.02 44.652 52.860001 59.112 63.84 71.435997 78.648003 81.935997 89.568001 96.804001 101.928 109.08 116.556 119.844 126.096 130.82401 137.976 145.452 153.084 159.76801 166.98 174.45599 181.608 184.896"
         y="0"
         sodipodi:role="line"
         id="tspan5145">Merge_Actual_Predicted_Labels</tspan></text>
</g><path
     d="m 734.3029,-337.28495 h 206 v 12 h -206 z"
     style="fill:#e3e3ff;fill-opacity:1;fill-rule:nonzero;stroke:none;stroke-width:0.1"
     id="path5149"
     inkscape:connector-curvature="0" /><path
     d="m 734.3029,-337.28495 h 206 v 12 h -206 z"
     style="fill:none;stroke:#4d66cc;stroke-width:1;stroke-linecap:butt;stroke-linejoin:miter;stroke-miterlimit:10;stroke-dasharray:none;stroke-opacity:1"
     id="path5151"
     inkscape:connector-curvature="0" /><g
     id="g5153"
     transform="translate(-569.6971,-553.28495)"><text
       transform="matrix(1,0,0,-1,1306,218)"
       style="font-variant:normal;font-weight:normal;font-size:12px;font-family:Verdana;-inkscape-font-specification:Verdana;writing-mode:lr-tb;fill:#4d66cc;fill-opacity:1;fill-rule:nonzero;stroke:none"
       id="text5157"><tspan
         x="0 10.116 17.268 22.392 29.868 37.02 44.652 52.860001 59.112 63.84 71.435997 78.648003 81.935997 89.568001 96.804001 101.928 109.08 116.556 119.844 126.096 130.82401 137.976 145.452 153.084 159.76801 166.98 174.45599 181.608 184.896"
         y="0"
         sodipodi:role="line"
         id="tspan5155">Merge_Actual_Predicted_Labels</tspan></text>
</g><path
     d="m 474.3029,32.71505 v -70"
     style="fill:none;stroke:#0000ff;stroke-width:1;stroke-linecap:butt;stroke-linejoin:miter;stroke-miterlimit:10;stroke-dasharray:none;stroke-opacity:1"
     id="path5159"
     inkscape:connector-curvature="0" /><path
     d="m 468.3029,-22.88495 6,-14.4 6,14.4 -6,-4.8"
     style="fill:#0000ff;fill-opacity:1;fill-rule:nonzero;stroke:none;stroke-width:0.1"
     id="path5161"
     inkscape:connector-curvature="0" /><g
     id="g5163"
     transform="translate(-569.6971,-553.28495)"><text
       transform="matrix(1,0,0,-1,1048,547)"
       style="font-variant:normal;font-weight:normal;font-size:12px;font-family:Verdana;-inkscape-font-specification:Verdana;writing-mode:lr-tb;fill:#0000ff;fill-opacity:1;fill-rule:nonzero;stroke:none"
       id="text5167"><tspan
         x="0 5.448 11.7 16.823999 21.191999 25.92 33.396 37.764 44.976002 49.703999 54.071999 61.548 68.652"
         y="0"
         sodipodi:role="line"
         id="tspan5165">(sr,td,at,dv)</tspan></text>
</g><path
     d="m 474.3029,72.71505 v 46"
     style="fill:none;stroke:#0000ff;stroke-width:1;stroke-linecap:butt;stroke-linejoin:miter;stroke-miterlimit:10;stroke-dasharray:none;stroke-opacity:1"
     id="path5169"
     inkscape:connector-curvature="0" /><path
     d="m 468.3029,87.11505 6,-14.4 6,14.4 -6,-4.8"
     style="fill:#0000ff;fill-opacity:1;fill-rule:nonzero;stroke:none;stroke-width:0.1"
     id="path5171-5"
     inkscape:connector-curvature="0" /><g
     id="g5173"
     transform="translate(-569.6971,-553.28495)"><text
       transform="matrix(1,0,0,-1,1048,647)"
       style="font-variant:normal;font-weight:normal;font-size:12px;font-family:Verdana;-inkscape-font-specification:Verdana;writing-mode:lr-tb;fill:#0000ff;fill-opacity:1;fill-rule:nonzero;stroke:none"
       id="text5177"><tspan
         x="0 5.448 11.7 16.823999 21.191999 25.92 33.396 37.764 44.976002 49.703999 54.071999 61.548 68.652"
         y="0"
         sodipodi:role="line"
         id="tspan5175">(sr,td,at,dv)</tspan></text>
</g><path
     d="m 416.3029,52.71505 h -133"
     style="fill:none;stroke:#0000ff;stroke-width:1;stroke-linecap:butt;stroke-linejoin:miter;stroke-miterlimit:10;stroke-dasharray:none;stroke-opacity:1"
     id="path5179"
     inkscape:connector-curvature="0" /><path
     d="m 401.9029,46.71505 14.4,6 -14.4,6 4.8,-6"
     style="fill:#0000ff;fill-opacity:1;fill-rule:nonzero;stroke:none;stroke-width:0.1"
     id="path5181"
     inkscape:connector-curvature="0" /><g
     id="g5183"
     transform="translate(-569.6971,-553.28495)"><text
       transform="matrix(1,0,0,-1,913,606)"
       style="font-variant:normal;font-weight:normal;font-size:12px;font-family:Verdana;-inkscape-font-specification:Verdana;writing-mode:lr-tb;fill:#000000;fill-opacity:1;fill-rule:nonzero;stroke:none"
       id="text5187"><tspan
         x="0 6.2519999"
         y="0"
         sodipodi:role="line"
         id="tspan5185">sr</tspan></text>
</g><path
     d="m 768.3029,-37.28495 v 40"
     style="fill:none;stroke:#000000;stroke-width:1;stroke-linecap:butt;stroke-linejoin:miter;stroke-miterlimit:10;stroke-dasharray:none;stroke-opacity:1"
     id="path5189"
     inkscape:connector-curvature="0" /><path
     d="m 762.3029,-22.88495 6,-14.4 6,14.4 -6,-4.8"
     style="fill:#000000;fill-opacity:1;fill-rule:nonzero;stroke:none;stroke-width:0.1"
     id="path5191"
     inkscape:connector-curvature="0" /><path
     d="m 774.3029,-11.68495 -6,14.4 -6,-14.4 6,4.8"
     style="fill:#000000;fill-opacity:1;fill-rule:nonzero;stroke:none;stroke-width:0.1"
     id="path5193"
     inkscape:connector-curvature="0" /><path
     d="m 687.3029,-57.28495 h -149 v 0 0 h -0.5 -0.5 -0.5 -0.5 -0.5 -0.5 -0.5 -0.5 v 0 h -2"
     style="fill:none;stroke:#008080;stroke-width:1;stroke-linecap:butt;stroke-linejoin:miter;stroke-miterlimit:10;stroke-dasharray:none;stroke-opacity:1"
     id="path5195"
     inkscape:connector-curvature="0" /><path
     d="m 672.9029,-63.28495 14.4,6 -14.4,6 4.8,-6"
     style="fill:#008080;fill-opacity:1;fill-rule:nonzero;stroke:none;stroke-width:0.1"
     id="path5197"
     inkscape:connector-curvature="0" /><path
     d="m 849.3029,-57.28495 h 179 v 0 0 l 3.52,-0.234 3.04,-0.703 2.58,-1.172 2.11,-1.641 1.64,-2.109 1.17,-2.578 0.71,-3.047 0.23,-3.516 v 0 -36"
     style="fill:none;stroke:#008080;stroke-width:1;stroke-linecap:butt;stroke-linejoin:miter;stroke-miterlimit:10;stroke-dasharray:none;stroke-opacity:1"
     id="path5199"
     inkscape:connector-curvature="0" /><path
     d="m 1037.3029,-93.88495 6,-14.4 6,14.4 -6,-4.8"
     style="fill:#008080;fill-opacity:1;fill-rule:nonzero;stroke:none;stroke-width:0.1"
     id="path5201"
     inkscape:connector-curvature="0" /><path
     d="m 848.3029,-128.28495 h 105"
     style="fill:none;stroke:#ff0000;stroke-width:1;stroke-linecap:butt;stroke-linejoin:miter;stroke-miterlimit:10;stroke-dasharray:none;stroke-opacity:1"
     id="path5203"
     inkscape:connector-curvature="0" /><path
     d="m 938.9029,-134.28495 14.4,6 -14.4,6 4.8,-6"
     style="fill:#ff0000;fill-opacity:1;fill-rule:nonzero;stroke:none;stroke-width:0.1"
     id="path5205"
     inkscape:connector-curvature="0" /><path
     d="m 688.3029,-128.28495 h -199 v 0 0 l -3.52,0.234 -3.04,0.704 -2.58,1.171 -2.11,1.641 -1.64,2.109 -1.17,2.579 -0.71,3.046 -0.23,3.516 v 0 36"
     style="fill:none;stroke:#ff0000;stroke-width:1;stroke-linecap:butt;stroke-linejoin:miter;stroke-miterlimit:10;stroke-dasharray:none;stroke-opacity:1"
     id="path5207"
     inkscape:connector-curvature="0" /><path
     d="m 673.9029,-134.28495 14.4,6 -14.4,6 4.8,-6"
     style="fill:#ff0000;fill-opacity:1;fill-rule:nonzero;stroke:none;stroke-width:0.1"
     id="path5209"
     inkscape:connector-curvature="0" /><path
     d="m 768.3029,-148.28495 v -44"
     style="fill:none;stroke:#ff0000;stroke-width:1;stroke-linecap:butt;stroke-linejoin:miter;stroke-miterlimit:10;stroke-dasharray:none;stroke-opacity:1"
     id="path5211"
     inkscape:connector-curvature="0" /><path
     d="m 774.3029,-162.68495 -6,14.4 -6,-14.4 6,4.8"
     style="fill:#ff0000;fill-opacity:1;fill-rule:nonzero;stroke:none;stroke-width:0.1"
     id="path5213"
     inkscape:connector-curvature="0" /><path
     d="m 762.3029,-177.88495 6,-14.4 6,14.4 -6,-4.8"
     style="fill:#ff0000;fill-opacity:1;fill-rule:nonzero;stroke:none;stroke-width:0.1"
     id="path5215"
     inkscape:connector-curvature="0" /><path
     d="m 416.3029,39.71505 h -29 v 0 0 h -3.75 -3.75 -3.75 -3.75 -3.75 -3.75 -3.75 -3.75 v 0 h -84.083"
     style="fill:none;stroke:#0000ff;stroke-width:1;stroke-linecap:butt;stroke-linejoin:miter;stroke-miterlimit:10;stroke-dasharray:none;stroke-opacity:1"
     id="path5217"
     inkscape:connector-curvature="0" /><path
     d="m 287.6199,45.71505 -14.4,-6 14.4,-6 -4.8,6"
     style="fill:#0000ff;fill-opacity:1;fill-rule:nonzero;stroke:none;stroke-width:0.1"
     id="path5219"
     inkscape:connector-curvature="0" /><g
     id="g5221"
     transform="translate(-569.6971,-553.28495)"><text
       transform="matrix(1,0,0,-1,957,578)"
       style="font-variant:normal;font-weight:normal;font-size:12px;font-family:Verdana;-inkscape-font-specification:Verdana;writing-mode:lr-tb;fill:#000000;fill-opacity:1;fill-rule:nonzero;stroke:none"
       id="text5225"><tspan
         x="0 6.2519999 11.376 21.191999"
         y="0"
         sodipodi:role="line"
         id="tspan5223">sr+1</tspan></text>
</g><path
     d="m 432.3029,32.71505 v -40 l -0.23,-3.516 -0.71,-3.046 -1.169,-2.579 -1.641,-2.109 -2.109,-1.641 -2.578,-1.171 -3.047,-0.704 -3.516,-0.234 v 0 h -162 v 0 0 l -3.516,-0.234 -3.046,-0.703 -2.579,-1.172 -2.109,-1.641 -1.641,-2.109 -1.171,-2.578 -0.704,-3.047 -0.234,-3.516 v 0 -59"
     style="fill:none;stroke:#800000;stroke-width:1;stroke-linecap:butt;stroke-linejoin:miter;stroke-miterlimit:10;stroke-dasharray:none;stroke-opacity:1"
     id="path5227"
     inkscape:connector-curvature="0" /><path
     d="m 234.3029,-81.88495 6,-14.4 6,14.4 -6,-4.8"
     style="fill:#800000;fill-opacity:1;fill-rule:nonzero;stroke:none;stroke-width:0.1"
     id="path5229"
     inkscape:connector-curvature="0" /><g
     id="g5231"
     transform="translate(-569.6971,-553.28495)"><text
       transform="matrix(1,0,0,-1,987,556)"
       style="font-variant:normal;font-weight:normal;font-size:12px;font-family:Verdana;-inkscape-font-specification:Verdana;writing-mode:lr-tb;fill:#800000;fill-opacity:1;fill-rule:nonzero;stroke:none"
       id="text5235"><tspan
         x="0 6.2519999"
         y="0"
         sodipodi:role="line"
         id="tspan5233">sr</tspan></text>
</g><path
     d="m 768.3029,-276.28495 v 11 l 0.17,2.578 0.52,2.235 0.86,1.89 1.2,1.547 1.55,1.203 1.89,0.86 2.23,0.515 2.58,0.172 v 0 h 249 v 0 0 l 3.52,0.234 3.04,0.704 2.58,1.171 2.11,1.641 1.64,2.109 1.17,2.579 0.71,3.046 0.23,3.516 v 0 91"
     style="fill:none;stroke:#800000;stroke-width:1;stroke-linecap:butt;stroke-linejoin:miter;stroke-miterlimit:10;stroke-dasharray:none;stroke-opacity:1"
     id="path5237"
     inkscape:connector-curvature="0" /><path
     d="m 762.3029,-261.88495 6,-14.4 6,14.4 -6,-4.8"
     style="fill:#800000;fill-opacity:1;fill-rule:nonzero;stroke:none;stroke-width:0.1"
     id="path5239"
     inkscape:connector-curvature="0" /><path
     d="m 650.3029,-296.28495 h -395 v 0 0 l -3.516,0.234 -3.046,0.704 -2.579,1.171 -2.109,1.641 -1.641,2.109 -1.171,2.579 -0.704,3.046 -0.234,3.516 v 0 145"
     style="fill:none;stroke:#800000;stroke-width:1;stroke-linecap:butt;stroke-linejoin:miter;stroke-miterlimit:10;stroke-dasharray:none;stroke-opacity:1"
     id="path5241"
     inkscape:connector-curvature="0" /><path
     d="m 635.9029,-302.28495 14.4,6 -14.4,6 4.8,-6"
     style="fill:#800000;fill-opacity:1;fill-rule:nonzero;stroke:none;stroke-width:0.1"
     id="path5243"
     inkscape:connector-curvature="0" /><path
     d="m 886.3029,-296.28495 h 50"
     style="fill:none;stroke:#800000;stroke-width:1;stroke-linecap:butt;stroke-linejoin:miter;stroke-miterlimit:10;stroke-dasharray:none;stroke-opacity:1"
     id="path5245"
     inkscape:connector-curvature="0" /><path
     d="m 921.9029,-302.28495 14.4,6 -14.4,6 4.8,-6"
     style="fill:#800000;fill-opacity:1;fill-rule:nonzero;stroke:none;stroke-width:0.1"
     id="path5247"
     inkscape:connector-curvature="0" /><path
     d="m 768.3029,-316.28495 v -11 l -0.17,-2.578 -0.52,-2.234 -0.86,-1.891 -1.2,-1.547 -1.55,-1.203 -1.89,-0.859 -2.23,-0.516 -2.58,-0.172 v 0 h -501 v 0 0 l -3.516,-0.234 -3.046,-0.703 -2.579,-1.172 -2.109,-1.641 -1.641,-2.109 -1.171,-2.578 -0.704,-3.047 -0.234,-3.516 v 0 -17"
     style="fill:none;stroke:#800000;stroke-width:1;stroke-linecap:butt;stroke-linejoin:miter;stroke-miterlimit:10;stroke-dasharray:none;stroke-opacity:1"
     id="path5249"
     inkscape:connector-curvature="0" /><path
     d="m 774.3029,-330.68495 -6,14.4 -6,-14.4 6,4.8"
     style="fill:#800000;fill-opacity:1;fill-rule:nonzero;stroke:none;stroke-width:0.1"
     id="path5251"
     inkscape:connector-curvature="0" /></g></g></svg>