<?xml version="1.0" encoding="UTF-8" standalone="no"?>
<!-- Created with Inkscape (http://www.inkscape.org/) -->

<svg
   width="210mm"
   height="297mm"
   viewBox="0 0 210 297"
   version="1.1"
   id="svg5"
   inkscape:version="1.1.2 (b8e25be833, 2022-02-05)"
   sodipodi:docname="drawing-rule1.svg"
   xmlns:inkscape="http://www.inkscape.org/namespaces/inkscape"
   xmlns:sodipodi="http://sodipodi.sourceforge.net/DTD/sodipodi-0.dtd"
   xmlns="http://www.w3.org/2000/svg"
   xmlns:svg="http://www.w3.org/2000/svg">
  <sodipodi:namedview
     id="namedview7"
     pagecolor="#ffffff"
     bordercolor="#666666"
     borderopacity="1.0"
     inkscape:pageshadow="2"
     inkscape:pageopacity="0.0"
     inkscape:pagecheckerboard="0"
     inkscape:document-units="mm"
     showgrid="false"
     inkscape:zoom="0.74029882"
     inkscape:cx="396.46153"
     inkscape:cy="561.93525"
     inkscape:window-width="1920"
     inkscape:window-height="1017"
     inkscape:window-x="-8"
     inkscape:window-y="-8"
     inkscape:window-maximized="1"
     inkscape:current-layer="layer1" />
  <defs
     id="defs2" />
  <g
     inkscape:label="Layer 1"
     inkscape:groupmode="layer"
     id="layer1">
    <g
       id="g10"
       transform="matrix(0.02297487,0,0,-0.02063485,23.644321,128.037)"
       inkscape:export-filename="C:\Users\Dr Nauman\Downloads\RULE1.png"
       inkscape:export-xdpi="300"
       inkscape:export-ydpi="300">
      <path
         d="m 1010,650 c 0,204.344 -174.609,370 -390,370 -215.391,0 -390,-165.656 -390,-370 0,-204.344 174.609,-370 390,-370 215.391,0 390,165.656 390,370"
         style="fill:#ffffff;fill-opacity:1;fill-rule:nonzero;stroke:none"
         id="path12" />
      <path
         d="m 1010,650 c 0,204.344 -174.609,370 -390,370 -215.391,0 -390,-165.656 -390,-370 0,-204.344 174.609,-370 390,-370 215.391,0 390,165.656 390,370"
         style="fill:none;stroke:#000000;stroke-width:10;stroke-linecap:butt;stroke-linejoin:miter;stroke-miterlimit:10;stroke-dasharray:none;stroke-opacity:1"
         id="path14" />
      <g
         id="g16"
         transform="scale(10)">
        <text
           transform="matrix(1,0,0,-1,54.5676,61)"
           style="font-variant:normal;font-weight:normal;font-size:12px;font-family:Verdana;-inkscape-font-specification:Verdana;writing-mode:lr-tb;fill:#000000;fill-opacity:1;fill-rule:nonzero;stroke:none"
           id="text22"><tspan
             x="0 7.2360001"
             y="0"
             sodipodi:role="line"
             id="tspan18">P1</tspan><tspan
             x="-28.5676 -20.191601 -11.9836 -3.0076001 6.2444 11.2964 20.548401 28.756399 36.148399"
             y="48"
             sodipodi:role="line"
             id="tspan20">CANDIDATE</tspan></text>
      </g>
      <path
         d="m 5950,650 c 0,209.867 -170.13,380 -380,380 -209.87,0 -380,-170.133 -380,-380 0,-209.867 170.13,-380 380,-380 209.87,0 380,170.133 380,380"
         style="fill:#ffffff;fill-opacity:1;fill-rule:nonzero;stroke:none"
         id="path24" />
      <path
         d="m 5950,650 c 0,209.867 -170.13,380 -380,380 -209.87,0 -380,-170.133 -380,-380 0,-209.867 170.13,-380 380,-380 209.87,0 380,170.133 380,380"
         style="fill:none;stroke:#000000;stroke-width:10;stroke-linecap:butt;stroke-linejoin:miter;stroke-miterlimit:10;stroke-dasharray:none;stroke-opacity:1"
         id="path26" />
      <g
         id="g28"
         transform="scale(10)">
        <text
           transform="matrix(1,0,0,-1,549.37,61)"
           style="font-variant:normal;font-weight:normal;font-size:12px;font-family:Verdana;-inkscape-font-specification:Verdana;writing-mode:lr-tb;fill:#000000;fill-opacity:1;fill-rule:nonzero;stroke:none"
           id="text34"><tspan
             x="0 8.9759998"
             y="0"
             sodipodi:role="line"
             id="tspan30">No</tspan><tspan
             x="-28.3703 -19.994301 -11.7863 -2.8103001 6.4417 11.4937 20.745701 28.953699 36.345699"
             y="-49"
             sodipodi:role="line"
             id="tspan32">CANDIDATE</tspan></text>
      </g>
      <path
         d="M 2420,440 H 3640 V 860 H 2420 Z"
         style="fill:#ffffff;fill-opacity:1;fill-rule:nonzero;stroke:none"
         id="path36" />
      <path
         d="M 2420,440 H 3640 V 860 H 2420 Z"
         style="fill:none;stroke:#000000;stroke-width:10;stroke-linecap:butt;stroke-linejoin:miter;stroke-miterlimit:10;stroke-dasharray:none;stroke-opacity:1"
         id="path38" />
      <g
         id="g40"
         transform="scale(10)">
        <text
           transform="matrix(1,0,0,-1,284.387,61)"
           style="font-variant:normal;font-weight:normal;font-size:12px;font-family:Verdana;-inkscape-font-specification:Verdana;writing-mode:lr-tb;fill:#000000;fill-opacity:1;fill-rule:nonzero;stroke:none"
           id="text46"><tspan
             x="0 8.3400002 15.936 19.224001 26.375999 30.6"
             y="0"
             sodipodi:role="line"
             id="tspan42">Rule 1</tspan><tspan
             x="-75.386703 -69.938698 -62.4627 -54.866699 -45.050701 -40.826698 -35.318699 -27.110701 -19.634701 -14.5107 -11.2227 -4.9706998 2.6252999 5.9133 10.6413 18.237301 23.3613 30.5133 36.021301 40.2453 44.6133 48.837299 53.5653 61.041302 65.265297 75.081299 84.897301 92.529297 100.1613 107.7933"
             y="-32"
             sodipodi:role="line"
             id="tspan44">[pn= &quot;Agriculture&quot; , td &lt;=692]</tspan></text>
      </g>
      <path
         d="M 2420,650 H 1010"
         style="fill:none;stroke:#000000;stroke-width:10;stroke-linecap:butt;stroke-linejoin:miter;stroke-miterlimit:10;stroke-dasharray:none;stroke-opacity:1"
         id="path48" />
      <path
         d="m 2276,590 144,60 -144,60 48,-60"
         style="fill:#000000;fill-opacity:1;fill-rule:nonzero;stroke:none"
         id="path50" />
      <g
         id="g52"
         transform="scale(10)">
        <text
           transform="matrix(1,0,0,-1,5,116)"
           style="font-variant:normal;font-weight:normal;font-size:12px;font-family:Verdana;-inkscape-font-specification:Verdana;writing-mode:lr-tb;fill:#000000;fill-opacity:1;fill-rule:nonzero;stroke:none"
           id="text56"><tspan
             x="0 5.448 11.7 16.823999 21.191999 28.667999 36.264 40.632 47.844002 52.571999 56.939999 63.192001 69.444 75.695999 80.064003 84.792 92.267998 96.636002 103.92 110.172 117.804 122.172 129.45599 135.70799 143.34 147.70799 154.992 161.244 168.87601 173.244 180.528 186.78 194.412 198.78 206.064 212.31599 219.948 224.31599 231.60001 237.85201 245.48399 249.85201 253.14 260.35199 267.828 274.98001 278.26801"
             y="0"
             sodipodi:role="line"
             id="tspan54">(sr,pn,at,ssc,td,os1,os2,os3,os4,os5,os6,label)</tspan></text>
      </g>
      <path
         d="M 3640,650 H 5190"
         style="fill:none;stroke:#000000;stroke-width:10;stroke-linecap:butt;stroke-linejoin:miter;stroke-miterlimit:10;stroke-dasharray:none;stroke-opacity:1"
         id="path58" />
      <path
         d="m 5046,590 144,60 -144,60 48,-60"
         style="fill:#000000;fill-opacity:1;fill-rule:nonzero;stroke:none"
         id="path60" />
      <g
         id="g62"
         transform="scale(10)">
        <text
           transform="matrix(1,0,0,-1,286,8)"
           style="font-variant:normal;font-weight:normal;font-size:12px;font-family:Verdana;-inkscape-font-specification:Verdana;writing-mode:lr-tb;fill:#000000;fill-opacity:1;fill-rule:nonzero;stroke:none"
           id="text66"><tspan
             x="0 5.448 11.7 16.823999 21.191999 28.667999 36.264 40.632 47.844002 52.571999 56.939999 63.192001 69.444 75.695999 80.064003 84.792 92.267998 96.636002 103.92 110.172 117.804 122.172 129.45599 135.70799 143.34 147.70799 154.992 161.244 168.87601 173.244 180.528 186.78 194.412 198.78 206.064 212.31599 219.948 224.31599 231.60001 237.85201 245.48399 249.85201 253.14 260.35199 267.828 274.98001 278.26801"
             y="0"
             sodipodi:role="line"
             id="tspan64">(sr,pn,at,ssc,td,os1,os2,os3,os4,os5,os6,label)</tspan></text>
      </g>
    </g>
  </g>
</svg>
